<mxfile host="app.diagrams.net" agent="Mozilla/5.0 (Windows NT 10.0; Win64; x64) AppleWebKit/537.36 (KHTML, like Gecko) Chrome/131.0.0.0 Safari/537.36" version="24.9.0">
  <diagram name="Page-1" id="Q8pSoCGXSd7IFROrWKjH">
    <mxGraphModel dx="521" dy="557" grid="1" gridSize="10" guides="1" tooltips="1" connect="1" arrows="1" fold="1" page="1" pageScale="1" pageWidth="850" pageHeight="1100" math="0" shadow="0">
      <root>
        <mxCell id="0" />
        <mxCell id="1" parent="0" />
        <mxCell id="wv1nbfLQQ6nY54woq-Y_-7" value="" style="edgeStyle=orthogonalEdgeStyle;rounded=0;orthogonalLoop=1;jettySize=auto;html=1;" edge="1" parent="1" source="wv1nbfLQQ6nY54woq-Y_-1" target="wv1nbfLQQ6nY54woq-Y_-3">
          <mxGeometry relative="1" as="geometry" />
        </mxCell>
        <mxCell id="wv1nbfLQQ6nY54woq-Y_-1" value="Backend" style="rounded=1;whiteSpace=wrap;html=1;fillColor=#0050ef;fontColor=#ffffff;strokeColor=#001DBC;" vertex="1" parent="1">
          <mxGeometry x="80" y="110" width="120" height="60" as="geometry" />
        </mxCell>
        <mxCell id="wv1nbfLQQ6nY54woq-Y_-5" value="" style="edgeStyle=orthogonalEdgeStyle;rounded=0;orthogonalLoop=1;jettySize=auto;html=1;" edge="1" parent="1" source="wv1nbfLQQ6nY54woq-Y_-3" target="wv1nbfLQQ6nY54woq-Y_-4">
          <mxGeometry relative="1" as="geometry">
            <Array as="points">
              <mxPoint x="500" y="140" />
              <mxPoint x="500" y="140" />
            </Array>
          </mxGeometry>
        </mxCell>
        <mxCell id="wv1nbfLQQ6nY54woq-Y_-3" value="Cache" style="rounded=1;whiteSpace=wrap;html=1;fillColor=#6a00ff;fontColor=#ffffff;strokeColor=#3700CC;" vertex="1" parent="1">
          <mxGeometry x="305" y="110" width="120" height="60" as="geometry" />
        </mxCell>
        <mxCell id="wv1nbfLQQ6nY54woq-Y_-4" value="DB" style="shape=cylinder3;whiteSpace=wrap;html=1;boundedLbl=1;backgroundOutline=1;size=15;fillColor=#60a917;fontColor=#ffffff;strokeColor=#2D7600;" vertex="1" parent="1">
          <mxGeometry x="530" y="90" width="60" height="80" as="geometry" />
        </mxCell>
        <mxCell id="wv1nbfLQQ6nY54woq-Y_-8" value="&amp;nbsp; &amp;nbsp; &amp;nbsp; &amp;nbsp; Affinity" style="whiteSpace=wrap;html=1;aspect=fixed;" vertex="1" parent="1">
          <mxGeometry x="70" y="240" width="170" height="170" as="geometry" />
        </mxCell>
        <mxCell id="wv1nbfLQQ6nY54woq-Y_-18" value="" style="edgeStyle=orthogonalEdgeStyle;rounded=0;orthogonalLoop=1;jettySize=auto;html=1;" edge="1" parent="1" source="wv1nbfLQQ6nY54woq-Y_-9" target="wv1nbfLQQ6nY54woq-Y_-10">
          <mxGeometry relative="1" as="geometry" />
        </mxCell>
        <mxCell id="wv1nbfLQQ6nY54woq-Y_-9" value="backend" style="ellipse;whiteSpace=wrap;html=1;fillColor=#76608a;fontColor=#ffffff;strokeColor=#432D57;" vertex="1" parent="1">
          <mxGeometry x="90" y="260" width="120" height="50" as="geometry" />
        </mxCell>
        <mxCell id="wv1nbfLQQ6nY54woq-Y_-10" value="Cache" style="ellipse;whiteSpace=wrap;html=1;fillColor=#647687;fontColor=#ffffff;strokeColor=#314354;" vertex="1" parent="1">
          <mxGeometry x="90" y="340" width="120" height="50" as="geometry" />
        </mxCell>
        <mxCell id="wv1nbfLQQ6nY54woq-Y_-11" value="" style="rounded=1;whiteSpace=wrap;html=1;" vertex="1" parent="1">
          <mxGeometry x="315" y="235" width="150" height="175" as="geometry" />
        </mxCell>
        <mxCell id="wv1nbfLQQ6nY54woq-Y_-23" value="" style="edgeStyle=orthogonalEdgeStyle;rounded=0;orthogonalLoop=1;jettySize=auto;html=1;" edge="1" parent="1" source="wv1nbfLQQ6nY54woq-Y_-19" target="wv1nbfLQQ6nY54woq-Y_-20">
          <mxGeometry relative="1" as="geometry" />
        </mxCell>
        <mxCell id="wv1nbfLQQ6nY54woq-Y_-19" value="backend" style="ellipse;whiteSpace=wrap;html=1;fillColor=#76608a;fontColor=#ffffff;strokeColor=#432D57;" vertex="1" parent="1">
          <mxGeometry x="330" y="250" width="120" height="50" as="geometry" />
        </mxCell>
        <mxCell id="wv1nbfLQQ6nY54woq-Y_-20" value="Cache" style="ellipse;whiteSpace=wrap;html=1;fillColor=#647687;fontColor=#ffffff;strokeColor=#314354;" vertex="1" parent="1">
          <mxGeometry x="330" y="340" width="120" height="50" as="geometry" />
        </mxCell>
        <mxCell id="wv1nbfLQQ6nY54woq-Y_-24" value="Anti-Affinity" style="text;html=1;align=center;verticalAlign=middle;whiteSpace=wrap;rounded=0;" vertex="1" parent="1">
          <mxGeometry x="395" y="307.5" width="60" height="30" as="geometry" />
        </mxCell>
      </root>
    </mxGraphModel>
  </diagram>
</mxfile>
